<svg id="Layer_1" data-name="Layer 1" xmlns="http://www.w3.org/2000/svg" viewBox="0 0 1067.04 423.13"><defs><style>.cls-1{fill:#25efef;}</style></defs><title>Logo</title><path class="cls-1" d="M83.58,207.1a69.7,69.7,0,0,1,62.56-37.45q18,0,31.49,7.07a64,64,0,0,1,21.5,17.62v-22.2H231V325H199.13V302.26q-8.06,10.82-21.92,18t-31.62,7.21a67.21,67.21,0,0,1-36.07-10.12,71.79,71.79,0,0,1-25.94-28.3Q74,270.92,74,247.88T83.58,207.1Zm109,13.87a45.85,45.85,0,0,0-17.06-17.76,44.73,44.73,0,0,0-22.75-6.1A44.88,44.88,0,0,0,113,220.55q-6.52,11.52-6.52,27.33T113,275.63a46,46,0,0,0,17.2,18.17A44.13,44.13,0,0,0,152.8,300a44.63,44.63,0,0,0,22.75-6.1A45.57,45.57,0,0,0,192.61,276q6.52-11.79,6.52-27.6T192.61,221Z"/><path class="cls-1" d="M322.73,176.16q11.5-6.51,27.32-6.51v32.73h-8q-18.6,0-28.16,9.44t-9.57,32.73V325H272.65V172.14h31.63v22.2A49.65,49.65,0,0,1,322.73,176.16Z"/><path class="cls-1" d="M378.21,207.1a69.71,69.71,0,0,1,62.84-37.45,71.74,71.74,0,0,1,29.54,6.51q14.57,6.53,23.17,17.34V119.71h31.9V325h-31.9V302q-7.77,11.1-21.5,18.31t-31.49,7.21a68.39,68.39,0,0,1-36.48-10.12,71.39,71.39,0,0,1-26.08-28.3q-9.57-18.16-9.57-41.2T378.21,207.1Zm109,13.87a45.85,45.85,0,0,0-17.06-17.76,44.73,44.73,0,0,0-22.75-6.1,44.88,44.88,0,0,0-39.81,23.44q-6.53,11.52-6.52,27.33t6.52,27.75a46,46,0,0,0,17.2,18.17A44.11,44.11,0,0,0,447.43,300a44.63,44.63,0,0,0,22.75-6.1A45.57,45.57,0,0,0,487.24,276q6.51-11.79,6.52-27.6T487.24,221Z"/><path class="cls-1" d="M590.44,321q-14.3-6.53-22.61-17.76A44.17,44.17,0,0,1,559,278.12h32.73q.84,9.72,9.3,16.23t21.22,6.52q13.32,0,20.67-5.13t7.35-13.18q0-8.6-8.18-12.76t-25.94-9.16a249.29,249.29,0,0,1-28-9.15,49.07,49.07,0,0,1-18.72-13.6q-7.9-9.15-7.91-24.13a37.66,37.66,0,0,1,7.21-22.34q7.22-10.12,20.67-15.95t30.94-5.82q26.07,0,42,13.17t17.06,35.93H647.73a22.53,22.53,0,0,0-8.32-16.37q-7.49-6.09-20.25-6.1-12.49,0-19.14,4.72a14.59,14.59,0,0,0-6.66,12.48,13.48,13.48,0,0,0,4.43,10.26,31.34,31.34,0,0,0,10.83,6.52q6.38,2.37,18.86,6a204,204,0,0,1,27.33,9,50.84,50.84,0,0,1,18.45,13.45q7.75,8.88,8,23.58a39.53,39.53,0,0,1-7.21,23.31q-7.22,10.26-20.39,16.09t-30.94,5.82Q604.73,327.5,590.44,321Z"/><path class="cls-1" d="M747.05,132.19V325H715.43V132.19Z"/><path class="cls-1" d="M315.69,380.5a5.25,5.25,0,0,1-2.2-1.74,4.42,4.42,0,0,1-.8-2.62h3.06a2.73,2.73,0,0,0,.88,1.85,3.19,3.19,0,0,0,2.22.72,3.39,3.39,0,0,0,2.3-.71,2.31,2.31,0,0,0,.82-1.84,2,2,0,0,0-.51-1.42,3.38,3.38,0,0,0-1.28-.85,17.93,17.93,0,0,0-2.11-.65,19.65,19.65,0,0,1-2.76-.92,4.48,4.48,0,0,1-1.82-1.43,4.17,4.17,0,0,1-.75-2.61,4.6,4.6,0,0,1,.75-2.62,4.77,4.77,0,0,1,2.11-1.73,7.62,7.62,0,0,1,3.12-.6,6.49,6.49,0,0,1,4.14,1.27,4.67,4.67,0,0,1,1.79,3.46H321.5a2.3,2.3,0,0,0-.9-1.63,3.34,3.34,0,0,0-2.18-.67,3.12,3.12,0,0,0-2,.62,2.18,2.18,0,0,0-.78,1.8,1.85,1.85,0,0,0,.49,1.32,3.51,3.51,0,0,0,1.24.81,18.24,18.24,0,0,0,2.05.65,21.82,21.82,0,0,1,2.82,1,4.83,4.83,0,0,1,1.85,1.46,4.27,4.27,0,0,1,.76,2.64,4.76,4.76,0,0,1-.71,2.5,5.1,5.1,0,0,1-2.08,1.89,6.79,6.79,0,0,1-3.21.72A7.81,7.81,0,0,1,315.69,380.5Z"/><path class="cls-1" d="M346.53,363.56v17.38h-2.85V369l-5.3,11.91h-2L331.08,369v11.91h-2.86V363.56h3.08l6.1,13.63,6.08-13.63Z"/><path class="cls-1" d="M360.76,377.39h-7.28l-1.25,3.55h-3l6.22-17.41h3.31L365,380.94h-3Zm-.8-2.33L357.14,367l-2.86,8.08Z"/><path class="cls-1" d="M376.74,380.94l-4-6.95h-2.17v6.95h-2.86V363.56h6a7.45,7.45,0,0,1,3.39.7,4.85,4.85,0,0,1,2.07,1.87,5.11,5.11,0,0,1,.69,2.63,5.22,5.22,0,0,1-1,3.09,5.07,5.07,0,0,1-3,1.89l4.3,7.2Zm-6.17-9.23h3.15a3.32,3.32,0,0,0,2.41-.8,2.88,2.88,0,0,0,.81-2.15,2.75,2.75,0,0,0-.8-2.11,3.38,3.38,0,0,0-2.42-.77h-3.15Z"/><path class="cls-1" d="M394.75,363.56v2.32h-4.62v15.06h-2.86V365.88h-4.65v-2.32Z"/><path class="cls-1" d="M400.48,365.86V371h6v2.33h-6v5.32h6.75v2.33h-9.6V363.53h9.6v2.33Z"/><path class="cls-1" d="M419.76,380.94l-4-6.95h-2.18v6.95h-2.85V363.56h6a7.39,7.39,0,0,1,3.39.7,4.82,4.82,0,0,1,2.08,1.87,5.11,5.11,0,0,1,.69,2.63,5.22,5.22,0,0,1-1,3.09,5.07,5.07,0,0,1-3,1.89l4.3,7.2Zm-6.18-9.23h3.15a3.35,3.35,0,0,0,2.42-.8,2.88,2.88,0,0,0,.81-2.15,2.79,2.79,0,0,0-.8-2.11,3.39,3.39,0,0,0-2.43-.77h-3.15Z"/><path class="cls-1" d="M435.62,380.5a5.13,5.13,0,0,1-2.2-1.74,4.35,4.35,0,0,1-.8-2.62h3.05a2.73,2.73,0,0,0,.88,1.85,3.19,3.19,0,0,0,2.22.72,3.39,3.39,0,0,0,2.3-.71,2.32,2.32,0,0,0,.83-1.84,2,2,0,0,0-.52-1.42,3.42,3.42,0,0,0-1.27-.85,18.84,18.84,0,0,0-2.12-.65,19.65,19.65,0,0,1-2.76-.92,4.46,4.46,0,0,1-1.81-1.43,4.17,4.17,0,0,1-.75-2.61,4.6,4.6,0,0,1,.75-2.62,4.8,4.8,0,0,1,2.1-1.73,7.62,7.62,0,0,1,3.12-.6,6.45,6.45,0,0,1,4.14,1.27,4.64,4.64,0,0,1,1.79,3.46h-3.15a2.3,2.3,0,0,0-.9-1.63,3.34,3.34,0,0,0-2.18-.67,3.14,3.14,0,0,0-2,.62,2.2,2.2,0,0,0-.77,1.8,1.85,1.85,0,0,0,.48,1.32,3.51,3.51,0,0,0,1.24.81,19,19,0,0,0,2,.65,21.82,21.82,0,0,1,2.82,1,4.83,4.83,0,0,1,1.85,1.46,4.2,4.2,0,0,1,.76,2.64,4.76,4.76,0,0,1-.71,2.5A5.1,5.1,0,0,1,442,380.4a6.79,6.79,0,0,1-3.21.72A7.73,7.73,0,0,1,435.62,380.5Z"/><path class="cls-1" d="M451.61,380a8.5,8.5,0,0,1-3.23-3.18,9.5,9.5,0,0,1,0-9.17,8.52,8.52,0,0,1,3.23-3.16,9.35,9.35,0,0,1,8.95,0,8.42,8.42,0,0,1,3.22,3.16,9.57,9.57,0,0,1,0,9.17,8.41,8.41,0,0,1-3.22,3.18,9.35,9.35,0,0,1-8.95,0Zm7.54-2.13a5.43,5.43,0,0,0,2.12-2.25,7.33,7.33,0,0,0,.76-3.39,7.22,7.22,0,0,0-.76-3.37,5.43,5.43,0,0,0-2.12-2.23,6.45,6.45,0,0,0-6.15,0,5.35,5.35,0,0,0-2.11,2.23,7.1,7.1,0,0,0-.77,3.37,7.21,7.21,0,0,0,.77,3.39,5.34,5.34,0,0,0,2.11,2.25,6.38,6.38,0,0,0,6.15,0Z"/><path class="cls-1" d="M470.6,378.64h5.88v2.3h-8.73V363.56h2.85Z"/><path class="cls-1" d="M481.69,363.56v11.08a3.94,3.94,0,0,0,1,3,4,4,0,0,0,2.89,1,4,4,0,0,0,2.92-1,3.94,3.94,0,0,0,1-3V363.56h2.85v11a6.65,6.65,0,0,1-.92,3.6,5.73,5.73,0,0,1-2.48,2.2,8.38,8.38,0,0,1-6.84,0,5.64,5.64,0,0,1-2.44-2.2,6.82,6.82,0,0,1-.9-3.6v-11Z"/><path class="cls-1" d="M507.34,363.56v2.32h-4.62v15.06h-2.85V365.88h-4.66v-2.32Z"/><path class="cls-1" d="M513.07,363.56v17.38h-2.85V363.56Z"/><path class="cls-1" d="M520.29,380a8.43,8.43,0,0,1-3.23-3.18,9.43,9.43,0,0,1,0-9.17,8.45,8.45,0,0,1,3.23-3.16,9.35,9.35,0,0,1,9,0,8.33,8.33,0,0,1,3.21,3.16,9.5,9.5,0,0,1,0,9.17,8.31,8.31,0,0,1-3.21,3.18,9.35,9.35,0,0,1-9,0Zm7.54-2.13a5.4,5.4,0,0,0,2.11-2.25,7.21,7.21,0,0,0,.76-3.39,7.1,7.1,0,0,0-.76-3.37,5.41,5.41,0,0,0-2.11-2.23,6.45,6.45,0,0,0-6.15,0,5.43,5.43,0,0,0-2.12,2.23,7.1,7.1,0,0,0-.76,3.37,7.21,7.21,0,0,0,.76,3.39,5.43,5.43,0,0,0,2.12,2.25,6.38,6.38,0,0,0,6.15,0Z"/><path class="cls-1" d="M550.71,380.94h-2.85l-8.58-13v13h-2.85V363.53h2.85l8.58,13v-13h2.85Z"/><path class="cls-1" d="M557,380.5a5.19,5.19,0,0,1-2.2-1.74,4.42,4.42,0,0,1-.8-2.62h3.05A2.74,2.74,0,0,0,558,378a3.14,3.14,0,0,0,2.21.72,3.39,3.39,0,0,0,2.3-.71,2.32,2.32,0,0,0,.83-1.84,2,2,0,0,0-.52-1.42,3.34,3.34,0,0,0-1.27-.85,19.23,19.23,0,0,0-2.11-.65,19.4,19.4,0,0,1-2.77-.92,4.46,4.46,0,0,1-1.81-1.43,4.17,4.17,0,0,1-.75-2.61,4.6,4.6,0,0,1,.75-2.62,4.8,4.8,0,0,1,2.1-1.73,7.62,7.62,0,0,1,3.12-.6,6.5,6.5,0,0,1,4.15,1.27,4.63,4.63,0,0,1,1.78,3.46h-3.15a2.3,2.3,0,0,0-.9-1.63,3.31,3.31,0,0,0-2.17-.67,3.15,3.15,0,0,0-2,.62,2.2,2.2,0,0,0-.77,1.8,1.81,1.81,0,0,0,.49,1.32,3.34,3.34,0,0,0,1.24.81,18.24,18.24,0,0,0,2,.65,21.61,21.61,0,0,1,2.81,1,4.83,4.83,0,0,1,1.85,1.46,4.2,4.2,0,0,1,.76,2.64,4.67,4.67,0,0,1-.71,2.5,5.14,5.14,0,0,1-2.07,1.89,6.86,6.86,0,0,1-3.22.72A7.73,7.73,0,0,1,557,380.5Z"/><path class="cls-1" d="M586.3,363.56v2.32h-7.38V371h5.76v2.33h-5.76v7.6h-2.85V363.56Z"/><path class="cls-1" d="M592.42,380a8.43,8.43,0,0,1-3.23-3.18,9.43,9.43,0,0,1,0-9.17,8.45,8.45,0,0,1,3.23-3.16,8.94,8.94,0,0,1,4.46-1.14,9.06,9.06,0,0,1,4.49,1.14,8.33,8.33,0,0,1,3.21,3.16,9.5,9.5,0,0,1,0,9.17,8.31,8.31,0,0,1-3.21,3.18,9.06,9.06,0,0,1-4.49,1.14A8.94,8.94,0,0,1,592.42,380Zm7.54-2.13a5.4,5.4,0,0,0,2.11-2.25,7.21,7.21,0,0,0,.76-3.39,7.1,7.1,0,0,0-.76-3.37,5.41,5.41,0,0,0-2.11-2.23,6.47,6.47,0,0,0-6.16,0,5.41,5.41,0,0,0-2.11,2.23,7.1,7.1,0,0,0-.76,3.37,7.21,7.21,0,0,0,.76,3.39,5.4,5.4,0,0,0,2.11,2.25,6.4,6.4,0,0,0,6.16,0Z"/><path class="cls-1" d="M617.59,380.94l-4-6.95h-2.18v6.95h-2.85V363.56h6a7.45,7.45,0,0,1,3.39.7,4.88,4.88,0,0,1,2.08,1.87,5.21,5.21,0,0,1,.68,2.63,5.28,5.28,0,0,1-1,3.09,5.1,5.1,0,0,1-3,1.89l4.3,7.2Zm-6.18-9.23h3.15a3.35,3.35,0,0,0,2.42-.8,2.88,2.88,0,0,0,.81-2.15,2.79,2.79,0,0,0-.8-2.11,3.42,3.42,0,0,0-2.43-.77h-3.15Z"/><path class="cls-1" d="M633.44,380.5a5.25,5.25,0,0,1-2.2-1.74,4.42,4.42,0,0,1-.8-2.62h3a2.74,2.74,0,0,0,.89,1.85,3.16,3.16,0,0,0,2.21.72,3.41,3.41,0,0,0,2.31-.71,2.31,2.31,0,0,0,.82-1.84,2,2,0,0,0-.51-1.42,3.38,3.38,0,0,0-1.28-.85,18.56,18.56,0,0,0-2.11-.65,19.4,19.4,0,0,1-2.77-.92,4.52,4.52,0,0,1-1.81-1.43,4.17,4.17,0,0,1-.75-2.61,4.6,4.6,0,0,1,.75-2.62,4.8,4.8,0,0,1,2.1-1.73,7.63,7.63,0,0,1,3.13-.6,6.49,6.49,0,0,1,4.14,1.27,4.67,4.67,0,0,1,1.79,3.46h-3.15a2.28,2.28,0,0,0-.91-1.63,3.31,3.31,0,0,0-2.17-.67,3.1,3.1,0,0,0-2,.62,2.18,2.18,0,0,0-.78,1.8,1.85,1.85,0,0,0,.49,1.32,3.51,3.51,0,0,0,1.24.81,18.24,18.24,0,0,0,2,.65,21.1,21.1,0,0,1,2.81,1,4.69,4.69,0,0,1,1.85,1.46,4.21,4.21,0,0,1,.77,2.64,4.68,4.68,0,0,1-.72,2.5,5,5,0,0,1-2.07,1.89,6.8,6.8,0,0,1-3.22.72A7.8,7.8,0,0,1,633.44,380.5Z"/><path class="cls-1" d="M664.28,363.56v17.38h-2.85V369l-5.3,11.91h-2L648.82,369v11.91H646V363.56h3.08l6.1,13.63,6.08-13.63Z"/><path class="cls-1" d="M678.51,377.39h-7.28L670,380.94h-3l6.22-17.41h3.31l6.22,17.41h-3Zm-.8-2.33L674.89,367,672,375.06Z"/><path class="cls-1" d="M694.49,380.94l-4-6.95h-2.17v6.95h-2.86V363.56h6a7.45,7.45,0,0,1,3.39.7,4.85,4.85,0,0,1,2.07,1.87,5.11,5.11,0,0,1,.69,2.63,5.22,5.22,0,0,1-1,3.09,5.07,5.07,0,0,1-3,1.89l4.3,7.2Zm-6.17-9.23h3.15a3.32,3.32,0,0,0,2.41-.8,2.88,2.88,0,0,0,.81-2.15,2.75,2.75,0,0,0-.8-2.11,3.38,3.38,0,0,0-2.42-.77h-3.15Z"/><path class="cls-1" d="M712.5,363.56v2.32h-4.63v15.06H705V365.88h-4.65v-2.32Z"/><path class="cls-1" d="M718.23,365.86V371h6v2.33h-6v5.32H725v2.33h-9.6V363.53H725v2.33Z"/><path class="cls-1" d="M737.51,380.94l-4-6.95h-2.18v6.95h-2.85V363.56h6a7.39,7.39,0,0,1,3.39.7,4.82,4.82,0,0,1,2.08,1.87,5.11,5.11,0,0,1,.69,2.63,5.22,5.22,0,0,1-1,3.09,5.07,5.07,0,0,1-3,1.89l4.3,7.2Zm-6.18-9.23h3.15a3.35,3.35,0,0,0,2.42-.8,2.88,2.88,0,0,0,.81-2.15,2.79,2.79,0,0,0-.8-2.11,3.39,3.39,0,0,0-2.43-.77h-3.15Z"/><path class="cls-1" d="M751,367.63a8.42,8.42,0,0,1,3.22-3.16,9.47,9.47,0,0,1,9.41.23,7.72,7.72,0,0,1,3.14,3.86h-3.43a4.58,4.58,0,0,0-1.88-2.05,5.55,5.55,0,0,0-2.77-.68,6.05,6.05,0,0,0-3.08.78,5.41,5.41,0,0,0-2.11,2.23,7.78,7.78,0,0,0,0,6.75,5.56,5.56,0,0,0,2.11,2.24,6.05,6.05,0,0,0,3.08.78,5.54,5.54,0,0,0,2.77-.67,4.64,4.64,0,0,0,1.88-2.05h3.43a7.69,7.69,0,0,1-3.14,3.85,9.13,9.13,0,0,1-4.94,1.35,9,9,0,0,1-4.48-1.14,8.47,8.47,0,0,1-3.21-3.16,9.41,9.41,0,0,1,0-9.16Z"/><path class="cls-1" d="M773.59,380a8.43,8.43,0,0,1-3.23-3.18,9.43,9.43,0,0,1,0-9.17,8.45,8.45,0,0,1,3.23-3.16,9.35,9.35,0,0,1,8.95,0,8.33,8.33,0,0,1,3.21,3.16,9.5,9.5,0,0,1,0,9.17,8.31,8.31,0,0,1-3.21,3.18,9.35,9.35,0,0,1-8.95,0Zm7.54-2.13a5.4,5.4,0,0,0,2.11-2.25,7.21,7.21,0,0,0,.76-3.39,7.1,7.1,0,0,0-.76-3.37,5.41,5.41,0,0,0-2.11-2.23,6.47,6.47,0,0,0-6.16,0,5.41,5.41,0,0,0-2.11,2.23,7.1,7.1,0,0,0-.76,3.37,7.21,7.21,0,0,0,.76,3.39,5.4,5.4,0,0,0,2.11,2.25,6.4,6.4,0,0,0,6.16,0Z"/><path class="cls-1" d="M792.58,378.64h5.88v2.3h-8.73V363.56h2.85Z"/><path class="cls-1" d="M803.69,378.64h5.87v2.3h-8.73V363.56h2.86Z"/><path class="cls-1" d="M814.79,365.86V371h6v2.33h-6v5.32h6.75v2.33h-9.6V363.53h9.6v2.33Z"/><path class="cls-1" d="M825.28,367.63a8.45,8.45,0,0,1,3.23-3.16,9.45,9.45,0,0,1,9.4.23,7.72,7.72,0,0,1,3.14,3.86h-3.43a4.56,4.56,0,0,0-1.87-2.05,5.59,5.59,0,0,0-2.78-.68,6,6,0,0,0-3.07.78,5.43,5.43,0,0,0-2.12,2.23,7.87,7.87,0,0,0,0,6.75,5.59,5.59,0,0,0,2.12,2.24,6,6,0,0,0,3.07.78,5.58,5.58,0,0,0,2.78-.67,4.62,4.62,0,0,0,1.87-2.05h3.43a7.69,7.69,0,0,1-3.14,3.85,9.13,9.13,0,0,1-4.94,1.35A8.93,8.93,0,0,1,828.5,380a8.42,8.42,0,0,1-3.22-3.16,9.41,9.41,0,0,1,0-9.16Z"/><path class="cls-1" d="M855.61,363.56v2.32H851v15.06h-2.85V365.88h-4.65v-2.32Z"/><path class="cls-1" d="M862,380a8.43,8.43,0,0,1-3.23-3.18,9.43,9.43,0,0,1,0-9.17,8.45,8.45,0,0,1,3.23-3.16,9.35,9.35,0,0,1,8.95,0,8.33,8.33,0,0,1,3.21,3.16,9.5,9.5,0,0,1,0,9.17A8.31,8.31,0,0,1,870.9,380a9.35,9.35,0,0,1-8.95,0Zm7.54-2.13a5.4,5.4,0,0,0,2.11-2.25,7.21,7.21,0,0,0,.76-3.39,7.1,7.1,0,0,0-.76-3.37,5.41,5.41,0,0,0-2.11-2.23,6.47,6.47,0,0,0-6.16,0,5.41,5.41,0,0,0-2.11,2.23,7.1,7.1,0,0,0-.76,3.37,7.21,7.21,0,0,0,.76,3.39,5.4,5.4,0,0,0,2.11,2.25,6.4,6.4,0,0,0,6.16,0Z"/><path class="cls-1" d="M887.12,380.94l-4-6.95h-2.18v6.95h-2.85V363.56h6a7.39,7.39,0,0,1,3.39.7,4.82,4.82,0,0,1,2.08,1.87,5.11,5.11,0,0,1,.69,2.63,5.22,5.22,0,0,1-1,3.09,5.07,5.07,0,0,1-3,1.89l4.3,7.2Zm-6.18-9.23h3.15a3.35,3.35,0,0,0,2.42-.8,2.88,2.88,0,0,0,.81-2.15,2.79,2.79,0,0,0-.8-2.11,3.39,3.39,0,0,0-2.43-.77h-3.15Z"/><path class="cls-1" d="M896.47,380.5a5.19,5.19,0,0,1-2.2-1.74,4.42,4.42,0,0,1-.8-2.62h3a2.74,2.74,0,0,0,.89,1.85,3.14,3.14,0,0,0,2.21.72,3.37,3.37,0,0,0,2.3-.71,2.32,2.32,0,0,0,.83-1.84,2,2,0,0,0-.51-1.42,3.38,3.38,0,0,0-1.28-.85,18.56,18.56,0,0,0-2.11-.65,19.4,19.4,0,0,1-2.77-.92,4.52,4.52,0,0,1-1.81-1.43,4.17,4.17,0,0,1-.75-2.61,4.6,4.6,0,0,1,.75-2.62,4.8,4.8,0,0,1,2.1-1.73,7.63,7.63,0,0,1,3.13-.6,6.49,6.49,0,0,1,4.14,1.27,4.67,4.67,0,0,1,1.79,3.46h-3.15a2.35,2.35,0,0,0-.91-1.63,3.31,3.31,0,0,0-2.17-.67,3.1,3.1,0,0,0-2,.62,2.18,2.18,0,0,0-.78,1.8,1.85,1.85,0,0,0,.49,1.32,3.51,3.51,0,0,0,1.24.81,18.24,18.24,0,0,0,2.05.65,21.1,21.1,0,0,1,2.81,1,4.76,4.76,0,0,1,1.85,1.46,4.21,4.21,0,0,1,.77,2.64,4.68,4.68,0,0,1-.72,2.5,5,5,0,0,1-2.07,1.89,6.8,6.8,0,0,1-3.22.72A7.8,7.8,0,0,1,896.47,380.5Z"/><path class="cls-1" d="M174.64,423.13a174.58,174.58,0,0,1-123.49-298C119.24,57,230,57,298.13,125.09L275.22,148a142.25,142.25,0,1,0,0,201.17l22.91,22.9A174.09,174.09,0,0,1,174.64,423.13Z"/><path class="cls-1" d="M782.94,68V326.91h87.72l-27.79-32.39H815.32V100.41h117V294.52H885.54l27.79,32.39h51.41V68Z"/><polygon class="cls-1" points="992.31 326.9 940.55 326.9 940.55 294.51 967.54 294.51 1027.5 73.58 914.56 40.03 898.53 89.23 867.74 79.2 893.54 0 1067.04 51.54 992.31 326.9"/><polygon class="cls-1" points="975 375.74 882.32 267.68 839.65 267.68 932.33 375.74 975 375.74"/><polygon class="cls-1" points="873.84 132.19 881.34 155.29 905.63 155.29 885.98 169.56 893.48 192.66 873.84 178.39 854.19 192.66 861.69 169.56 842.05 155.29 866.33 155.29 873.84 132.19"/></svg>